<?xml version="1.0" encoding="utf-8"?>
<!-- Generator: Adobe Illustrator 24.3.0, SVG Export Plug-In . SVG Version: 6.00 Build 0)  -->
<svg version="1.1" id="Layer_1" xmlns="http://www.w3.org/2000/svg" xmlns:xlink="http://www.w3.org/1999/xlink" x="0px" y="0px"
	 viewBox="0 0 1920 1080" style="enable-background:new 0 0 1920 1080;" xml:space="preserve">
<style type="text/css">
	.st0{fill:#FFFFFF;stroke:#000000;stroke-miterlimit:10;}
	.st1{fill:#05CE7C;}
	.st2{fill:#DA3AB3;}
	.st3{fill:#042F57;}
	.st4{fill:#FFC843;}
	.st5{fill:#DA2D2F;}
	.st6{fill:#00B3E3;}
	.st7{fill:#00299F;}
	.st8{fill:#FF4338;}
	.st9{fill:#002F32;}
</style>
<rect class="st0" width="1920" height="1080"/>
<g>
	<g>
		<g>
			<path class="st1" d="M665.71,429.79c0,14.34-7,27.78-18.75,36c4.26,5.06,10.54,7.97,17.16,7.97h12.03v-24.07h-10.44
				L665.71,429.79"/>
			<path class="st2" d="M665.71,334.55h-24.07v0.06h24.07v95.18V334.55 M601.83,334.55h-24.07v95.23
				c-0.01,16.4,9.12,31.44,23.67,39.01c14.55,7.57,32.1,6.41,45.53-3.01c-3.44-4.05-5.32-9.19-5.32-14.5v-21.5
				c-0.09,10.93-8.97,19.74-19.9,19.74c-10.93,0-19.81-8.81-19.9-19.74L601.83,334.55"/>
			<path class="st3" d="M665.71,334.61h-24.07v95.18v21.5c0,5.31,1.88,10.45,5.32,14.5c11.75-8.22,18.74-21.66,18.75-36
				L665.71,334.61"/>
		</g>
		<g>
			<path class="st4" d="M797.04,334.56c-11.22-0.01-21.97,4.5-29.82,12.52c7.72,7.82,12.04,18.36,12.03,29.34l0,0
				c0-9.83,7.97-17.79,17.79-17.79s17.79,7.97,17.79,17.79v97.35h24.07v-97.35C838.87,353.31,820.14,334.58,797.04,334.56"/>
			<path class="st2" d="M737.39,334.56c-8.66-0.01-17.11,2.68-24.16,7.7c4.1,4.35,6.38,10.11,6.38,16.09v18.07
				c0-9.83,7.97-17.79,17.79-17.79s17.79,7.97,17.79,17.79l0,0c-0.01-10.98,4.32-21.53,12.03-29.34
				C759.36,339.06,748.61,334.55,737.39,334.56"/>
			<path class="st5" d="M767.21,347.07c-7.72,7.82-12.04,18.36-12.03,29.34v97.35h24.07v-97.35
				C779.25,365.43,774.93,354.89,767.21,347.07"/>
			<path class="st6" d="M696.06,334.81h-12.03v24.07h11.5v17.54c0-13.58,6.6-26.32,17.69-34.16
				C708.78,337.5,702.56,334.81,696.06,334.81"/>
			<path class="st7" d="M713.22,342.25c-11.09,7.84-17.69,20.58-17.69,34.16v97.35h24.07v-97.35v-18.07
				C719.6,352.36,717.32,346.61,713.22,342.25"/>
		</g>
		<g>
			<path class="st4" d="M963.8,334.56c-11.22-0.01-21.97,4.5-29.82,12.52c7.72,7.82,12.04,18.36,12.03,29.34l0,0
				c0-9.83,7.97-17.79,17.79-17.79s17.79,7.97,17.79,17.79v97.35h24.07v-97.35C1005.63,353.31,986.9,334.58,963.8,334.56"/>
			<path class="st2" d="M904.15,334.56c-8.66-0.01-17.11,2.68-24.16,7.7c4.1,4.35,6.38,10.11,6.38,16.09v18.07
				c0-9.83,7.97-17.79,17.79-17.79s17.79,7.97,17.79,17.79l0,0c-0.01-10.98,4.32-21.53,12.03-29.34
				C926.12,339.06,915.37,334.55,904.15,334.56"/>
			<path class="st5" d="M933.97,347.07c-7.72,7.82-12.04,18.36-12.03,29.34v97.35h24.07v-97.35
				C946.02,365.43,941.69,354.89,933.97,347.07"/>
			<path class="st6" d="M862.82,334.81h-12.03v24.07h11.5v17.54c0-13.58,6.6-26.32,17.69-34.16
				C875.54,337.5,869.33,334.81,862.82,334.81"/>
			<path class="st7" d="M879.98,342.25c-11.09,7.84-17.69,20.58-17.69,34.16v97.35h24.07v-97.35v-18.07
				C886.36,352.36,884.08,346.61,879.98,342.25"/>
		</g>
		<g>
			<path class="st6" d="M1067.74,334.71c-25.51,0.03-46.18,20.7-46.21,46.21v92.99h24.07v-49.54h-24.07v-24.07h24.07v-19.39
				c0-12.23,9.91-22.14,22.14-22.14s22.14,9.91,22.14,22.14v19.39h24.07v-19.39C1113.93,355.41,1093.25,334.74,1067.74,334.71
				 M1113.95,424.38h-24.07v49.38h24.07V424.38"/>
			<polyline class="st8" points="1089.89,400.31 1045.6,400.31 1045.6,424.38 1089.89,424.38 1089.89,400.31 			"/>
			<path class="st9" d="M1113.96,400.31h-24.07v24.07h24.07L1113.96,400.31 M1045.6,400.31h-24.07v24.07h24.07V400.31"/>
		</g>
		<g>
			<path class="st6" d="M1222.39,334.82h-24.07v57.49h24.07V334.82 M1222.39,416.38h-24.07v57.49h24.07V416.38"/>
			<polyline class="st2" points="1198.33,392.32 1153.85,392.32 1153.85,416.38 1198.33,416.38 1198.33,392.32 			"/>
			<polyline class="st7" points="1222.39,392.32 1198.33,392.32 1198.33,416.38 1222.39,416.38 1222.39,392.32 			"/>
			<path class="st6" d="M1153.85,334.82h-24.07v57.49h24.07V334.82 M1153.85,416.38h-24.07v57.65h24.07V416.38"/>
			<polyline class="st7" points="1153.85,392.32 1129.79,392.32 1129.79,416.38 1153.85,416.38 1153.85,392.32 			"/>
		</g>
	</g>
</g>
</svg>
